<?xml version="1.0" encoding="UTF-8"?><svg id="b" xmlns="http://www.w3.org/2000/svg" width="127.07" height="36.91" xmlns:xlink="http://www.w3.org/1999/xlink" viewBox="0 0 127.07 36.91"><defs><linearGradient id="d" x1="-397.92" y1="488.9" x2="-397.83" y2="488.81" gradientTransform="translate(20166.18 -17498.2) rotate(-90) scale(44 -41)" gradientUnits="userSpaceOnUse"><stop offset="0" stop-color="#de9198"/><stop offset="1" stop-color="#dc8e84"/></linearGradient><linearGradient id="e" x1="-398.21" y1="488.82" x2="-398.12" y2="488.73" gradientTransform="translate(20163.18 -17909.53) rotate(-90) scale(45 -41)" gradientUnits="userSpaceOnUse"><stop offset="0" stop-color="#dc8f7b"/><stop offset="1" stop-color="#de916e"/></linearGradient><linearGradient id="f" x1="-393.24" y1="486.98" x2="-393.15" y2="486.89" gradientTransform="translate(28351.13 -21592.79) rotate(-90) scale(55 -58)" gradientUnits="userSpaceOnUse"><stop offset="0" stop-color="#0079b0"/><stop offset="1" stop-color="#0774a7"/></linearGradient><linearGradient id="g" x1="-392.91" y1="487.34" x2="-392.82" y2="487.25" gradientTransform="translate(32755.82 -19611.16) rotate(-90) scale(50 -67)" gradientUnits="userSpaceOnUse"><stop offset="0" stop-color="#0e6396"/><stop offset="1" stop-color="#156794"/></linearGradient><linearGradient id="h" x1="-393.67" y1="487.95" x2="-393.58" y2="487.86" gradientTransform="translate(29873.67 -24373.97) rotate(-90) scale(62 -61)" gradientUnits="userSpaceOnUse"><stop offset="0" stop-color="#007eb4"/><stop offset="1" stop-color="#007fb0"/></linearGradient><linearGradient id="i" x1="-394.03" y1="487.37" x2="-393.94" y2="487.28" gradientTransform="translate(19611.69 -27544.61) rotate(-90) scale(70 -40)" gradientUnits="userSpaceOnUse"><stop offset="0" stop-color="#006eaa"/><stop offset="1" stop-color="#036ba0"/></linearGradient><linearGradient id="j" x1="-394.59" y1="487.28" x2="-394.5" y2="487.19" gradientTransform="translate(19121.16 -31134.55) rotate(-90) scale(79 -39)" gradientUnits="userSpaceOnUse"><stop offset="0" stop-color="#0e6092"/><stop offset="1" stop-color="#1b6794"/></linearGradient><linearGradient id="k" x1="-395.24" y1="484.76" x2="-395.15" y2="484.67" gradientTransform="translate(23368.9 -36329.79) rotate(-90) scale(92 -48)" gradientUnits="userSpaceOnUse"><stop offset="0" stop-color="#41385e"/><stop offset="1" stop-color="#4c2951"/></linearGradient><linearGradient id="l" x1="-395.22" y1="486.64" x2="-395.13" y2="486.55" gradientTransform="translate(28814.66 -36329.79) rotate(-90) scale(92 -59)" gradientUnits="userSpaceOnUse"><stop offset="0" stop-color="#2e4b74"/><stop offset="1" stop-color="#384f79"/></linearGradient><linearGradient id="m" x1="-393.84" y1="487.33" x2="-393.75" y2="487.24" gradientTransform="translate(32755.82 -21628.79) rotate(-90) scale(55 -67)" gradientUnits="userSpaceOnUse"><stop offset="0" stop-color="#294f7a"/><stop offset="1" stop-color="#14759f"/></linearGradient><linearGradient id="n" x1="-394.54" y1="487.67" x2="-394.45" y2="487.58" gradientTransform="translate(36679.01 -20094.49) rotate(-90) scale(51 -75)" gradientUnits="userSpaceOnUse"><stop offset="0" stop-color="#296c8f"/><stop offset="1" stop-color="#585976"/></linearGradient><linearGradient id="o" x1="-395.34" y1="479.79" x2="-395.25" y2="479.7" gradientTransform="translate(14491.45 -30017.57) rotate(-90) scale(76 -30)" gradientUnits="userSpaceOnUse"><stop offset="0" stop-color="#362856"/><stop offset="1" stop-color="#3f225a"/></linearGradient><linearGradient id="p" x1="-395.32" y1="485.18" x2="-395.23" y2="485.09" gradientTransform="translate(25812.51 -30017.57) rotate(-90) scale(76 -53)" gradientUnits="userSpaceOnUse"><stop offset="0" stop-color="#3f2854"/><stop offset="1" stop-color="#5a1f56"/></linearGradient><linearGradient id="q" x1="-395.14" y1="485.34" x2="-395.05" y2="485.25" gradientTransform="translate(31155.24 -25261.62) rotate(-90) scale(64 -64)" gradientUnits="userSpaceOnUse"><stop offset="0" stop-color="#2a235c"/><stop offset="1" stop-color="#3c1861"/></linearGradient><linearGradient id="r" x1="-395.6" y1="485.33" x2="-395.51" y2="485.24" gradientTransform="translate(31155.24 -22525.44) rotate(-90) scale(57 -64)" gradientUnits="userSpaceOnUse"><stop offset="0" stop-color="#371668"/><stop offset="1" stop-color="#591c6c"/></linearGradient><linearGradient id="s" x1="-395.63" y1="484.31" x2="-395.54" y2="484.22" gradientTransform="translate(25763.51 -18968.51) rotate(-90) scale(48 -53)" gradientUnits="userSpaceOnUse"><stop offset="0" stop-color="#6d1861"/><stop offset="1" stop-color="#811467"/></linearGradient><linearGradient id="t" x1="-395.5" y1="484.32" x2="-395.42" y2="484.23" gradientTransform="translate(25763.51 -10265.32) rotate(-90) scale(26 -53)" gradientUnits="userSpaceOnUse"><stop offset="0" stop-color="#8c1977"/><stop offset="1" stop-color="#b1116f"/></linearGradient><linearGradient id="u" x1="-396.44" y1="484.66" x2="-396.35" y2="484.57" gradientTransform="translate(26268.04 -17029.88) rotate(-90) scale(43 -54)" gradientUnits="userSpaceOnUse"><stop offset="0" stop-color="#af0861"/><stop offset="1" stop-color="#c40961"/></linearGradient><linearGradient id="v" x1="-394.23" y1="487.5" x2="-394.15" y2="487.41" gradientTransform="translate(26922.56 -12198.92) rotate(-90) scale(31 -55)" gradientUnits="userSpaceOnUse"><stop offset="0" stop-color="#69939e"/><stop offset="1" stop-color="#878a93"/></linearGradient><linearGradient id="w" x1="-396.09" y1="487.5" x2="-396.01" y2="487.41" gradientTransform="translate(26922.56 -24933.3) rotate(-90) scale(63 -55)" gradientUnits="userSpaceOnUse"><stop offset="0" stop-color="#9c7f79"/><stop offset="1" stop-color="#9d8d82"/></linearGradient><linearGradient id="x" x1="-396.08" y1="485.88" x2="-395.99" y2="485.79" gradientTransform="translate(16147.02 -24933.26) rotate(-90) scale(63 -33)" gradientUnits="userSpaceOnUse"><stop offset="0" stop-color="#9e8c8f"/><stop offset="1" stop-color="#bd9283"/></linearGradient><linearGradient id="y" x1="-395.92" y1="488.29" x2="-395.83" y2="488.2" gradientTransform="translate(25994.51 -21754.79) rotate(-90) scale(55 -53)" gradientUnits="userSpaceOnUse"><stop offset="0" stop-color="#a08b8d"/><stop offset="1" stop-color="#bc8783"/></linearGradient><linearGradient id="z" x1="-394.75" y1="488.75" x2="-394.66" y2="488.66" gradientTransform="translate(30418.2 -16949.88) rotate(-90) scale(43 -62)" gradientUnits="userSpaceOnUse"><stop offset="0" stop-color="#9d838c"/><stop offset="1" stop-color="#a36d7c"/></linearGradient><linearGradient id="aa" x1="-395.85" y1="488.57" x2="-395.76" y2="488.48" gradientTransform="translate(26010.51 -19376.83) rotate(-90) scale(49 -53)" gradientUnits="userSpaceOnUse"><stop offset="0" stop-color="#c2827e"/><stop offset="1" stop-color="#ba7e7d"/></linearGradient><linearGradient id="ab" x1="-394.72" y1="488.38" x2="-394.63" y2="488.29" gradientTransform="translate(19166.13 -16949.85) rotate(-90) scale(43 -39)" gradientUnits="userSpaceOnUse"><stop offset="0" stop-color="#855777"/><stop offset="1" stop-color="#9d5573"/></linearGradient><linearGradient id="ac" x1="-395.75" y1="488.36" x2="-395.66" y2="488.27" gradientTransform="translate(19166.16 -19766.13) rotate(-90) scale(50 -39)" gradientUnits="userSpaceOnUse"><stop offset="0" stop-color="#ac6d7c"/><stop offset="1" stop-color="#994d6f"/></linearGradient><linearGradient id="ad" x1="-393.62" y1="489.32" x2="-393.54" y2="489.23" gradientTransform="translate(28499.1 -15717.89) rotate(-90) scale(40 -58)" gradientUnits="userSpaceOnUse"><stop offset="0" stop-color="#404878"/><stop offset="1" stop-color="#63366a"/></linearGradient><linearGradient id="ae" x1="-394.59" y1="488.83" x2="-394.5" y2="488.75" gradientTransform="translate(21141.23 -16941.88) rotate(-90) scale(43 -43)" gradientUnits="userSpaceOnUse"><stop offset="0" stop-color="#7b5376"/><stop offset="1" stop-color="#7d3265"/></linearGradient><linearGradient id="af" x1="-394.23" y1="489.41" x2="-394.14" y2="489.32" gradientTransform="translate(29973.67 -21258.46) rotate(-90) scale(54 -61)" gradientUnits="userSpaceOnUse"><stop offset="0" stop-color="#373671"/><stop offset="1" stop-color="#511159"/></linearGradient><linearGradient id="ag" x1="-394.54" y1="489.43" x2="-394.45" y2="489.34" gradientTransform="translate(29973.67 -31134.55) rotate(-90) scale(79 -61)" gradientUnits="userSpaceOnUse"><stop offset="0" stop-color="#192f75"/><stop offset="1" stop-color="#3e2065"/></linearGradient><linearGradient id="ah" x1="-394.19" y1="490.21" x2="-394.1" y2="490.12" gradientTransform="translate(27574.09 -21258.46) rotate(-90) scale(54 -56)" gradientUnits="userSpaceOnUse"><stop offset="0" stop-color="#590250"/><stop offset="1" stop-color="#64094e"/></linearGradient><linearGradient id="ai" x1="-394.11" y1="490.19" x2="-394.03" y2="490.1" gradientTransform="translate(27574.09 -18102.85) rotate(-90) scale(46 -56)" gradientUnits="userSpaceOnUse"><stop offset="0" stop-color="#5d0149"/><stop offset="1" stop-color="#720d55"/></linearGradient><linearGradient id="aj" x1="-394.56" y1="489.78" x2="-394.47" y2="489.69" gradientTransform="translate(24611.94 -16941.88) rotate(-90) scale(43 -50)" gradientUnits="userSpaceOnUse"><stop offset="0" stop-color="#781d5b"/><stop offset="1" stop-color="#7d1b5c"/></linearGradient><linearGradient id="ak" x1="-395.45" y1="490.34" x2="-395.36" y2="490.25" gradientTransform="translate(36408.49 -22122.12) rotate(-90) scale(56 -74)" gradientUnits="userSpaceOnUse"><stop offset="0" stop-color="#8b1d63"/><stop offset="1" stop-color="#882867"/></linearGradient><linearGradient id="al" x1="-395.73" y1="490.42" x2="-395.64" y2="490.33" gradientTransform="translate(47690.72 -19766.16) rotate(-90) scale(50 -97)" gradientUnits="userSpaceOnUse"><stop offset="0" stop-color="#953767"/><stop offset="1" stop-color="#9f456f"/></linearGradient><linearGradient id="am" x1="-396.35" y1="490.4" x2="-396.26" y2="490.31" gradientTransform="translate(47690.72 -21780.79) rotate(-90) scale(55 -97)" gradientUnits="userSpaceOnUse"><stop offset="0" stop-color="#993c75"/><stop offset="1" stop-color="#a54f79"/></linearGradient><linearGradient id="an" x1="-395.4" y1="488.95" x2="-395.32" y2="488.86" gradientTransform="translate(37761.06 -30418.89) rotate(-90) scale(77 -77)" gradientUnits="userSpaceOnUse"><stop offset="0" stop-color="#496e8e"/><stop offset="1" stop-color="#578da2"/></linearGradient><linearGradient id="ao" x1="-394.54" y1="485.64" x2="-394.45" y2="485.55" gradientTransform="translate(19534.69 -20094.45) rotate(-90) scale(51 -40)" gradientUnits="userSpaceOnUse"><stop offset="0" stop-color="#4a869a"/><stop offset="1" stop-color="#5c929f"/></linearGradient><linearGradient id="ap" x1="-394.98" y1="487.44" x2="-394.89" y2="487.35" gradientTransform="translate(26432.04 -21303.46) rotate(-90) scale(54 -54)" gradientUnits="userSpaceOnUse"><stop offset="0" stop-color="#5992a2"/><stop offset="1" stop-color="#5192a8"/></linearGradient><linearGradient id="aq" x1="-394.02" y1="485.65" x2="-393.93" y2="485.56" gradientTransform="translate(19534.69 -20853.11) rotate(-90) scale(53 -40)" gradientUnits="userSpaceOnUse"><stop offset="0" stop-color="#0b86b0"/><stop offset="1" stop-color="#2287a9"/></linearGradient><linearGradient id="ar" x1="-394.03" y1="487.92" x2="-393.94" y2="487.83" gradientTransform="translate(29873.67 -20853.14) rotate(-90) scale(53 -61)" gradientUnits="userSpaceOnUse"><stop offset="0" stop-color="#0a8ab5"/><stop offset="1" stop-color="#1687ae"/></linearGradient><linearGradient id="as" x1="-393.64" y1="488.96" x2="-393.56" y2="488.87" gradientTransform="translate(37761.06 -18078.85) rotate(-90) scale(46 -77)" gradientUnits="userSpaceOnUse"><stop offset="0" stop-color="#087ba9"/><stop offset="1" stop-color="#2b7ba0"/></linearGradient><linearGradient id="at" x1="-396.81" y1="490.41" x2="-396.72" y2="490.32" gradientTransform="translate(47690.72 -26173.27) rotate(-90) scale(66 -97)" gradientUnits="userSpaceOnUse"><stop offset="0" stop-color="#c36c7f"/><stop offset="1" stop-color="#bc6887"/></linearGradient><linearGradient id="au" x1="-397.19" y1="490.34" x2="-397.1" y2="490.25" gradientTransform="translate(28563.1 -13491.93) rotate(-90) scale(34 -58)" gradientUnits="userSpaceOnUse"><stop offset="0" stop-color="#a95584"/><stop offset="1" stop-color="#cb7992"/></linearGradient><linearGradient id="av" x1="-396.38" y1="488.55" x2="-396.29" y2="488.46" gradientTransform="translate(26010.51 -13856.26) rotate(-90) scale(35 -53)" gradientUnits="userSpaceOnUse"><stop offset="0" stop-color="#c57676"/><stop offset="1" stop-color="#ca8a7d"/></linearGradient><linearGradient id="aw" x1="-396.81" y1="489.41" x2="-396.72" y2="489.32" gradientTransform="translate(28505.13 -26173.27) rotate(-90) scale(66 -58)" gradientUnits="userSpaceOnUse"><stop offset="0" stop-color="#c06f77"/><stop offset="1" stop-color="#d48683"/></linearGradient><linearGradient id="ax" x1="-398.49" y1="485.59" x2="-398.4" y2="485.5" gradientTransform="translate(18078.09 -16727.52) rotate(-90) scale(42 -37)" gradientUnits="userSpaceOnUse"><stop offset="0" stop-color="#d27e4e"/><stop offset="1" stop-color="#d99650"/></linearGradient><linearGradient id="ay" x1="-400.45" y1="488.98" x2="-400.36" y2="488.89" gradientTransform="translate(46073.96 -15215.24) rotate(-90) scale(38 -94)" gradientUnits="userSpaceOnUse"><stop offset="0" stop-color="#ea8e41"/><stop offset="1" stop-color="#ed8a40"/></linearGradient><linearGradient id="az" x1="-399.19" y1="486.83" x2="-399.1" y2="486.74" gradientTransform="translate(28342.1 -10769.64) rotate(-90) scale(27 -58)" gradientUnits="userSpaceOnUse"><stop offset="0" stop-color="#ea5e54"/><stop offset="1" stop-color="#ec3458"/></linearGradient><linearGradient id="ba" x1="-398.57" y1="487.79" x2="-398.48" y2="487.7" gradientTransform="translate(32301.29 -15934.89) rotate(-90) scale(40 -66)" gradientUnits="userSpaceOnUse"><stop offset="0" stop-color="#eb7e48"/><stop offset="1" stop-color="#ec794e"/></linearGradient><linearGradient id="bb" x1="-398.9" y1="487.77" x2="-398.81" y2="487.68" gradientTransform="translate(32301.29 -19140.51) rotate(-90) scale(48 -66)" gradientUnits="userSpaceOnUse"><stop offset="0" stop-color="#e8984e"/><stop offset="1" stop-color="#ec7f4e"/></linearGradient><linearGradient id="bc" x1="-398.64" y1="480.18" x2="-398.55" y2="480.09" gradientTransform="translate(12587.32 -11950.59) rotate(-90) scale(30 -26)" gradientUnits="userSpaceOnUse"><stop offset="0" stop-color="#eb0256"/><stop offset="1" stop-color="#eb0355"/></linearGradient><linearGradient id="bd" x1="-398.35" y1="483.28" x2="-398.26" y2="483.19" gradientTransform="translate(19430.66 -15526.54) rotate(-90) scale(39 -40)" gradientUnits="userSpaceOnUse"><stop offset="0" stop-color="#e9054c"/><stop offset="1" stop-color="#eb024d"/></linearGradient><linearGradient id="be" x1="-399.96" y1="485.96" x2="-399.87" y2="485.87" gradientTransform="translate(25858.51 -8391.69) rotate(-90) scale(21 -53)" gradientUnits="userSpaceOnUse"><stop offset="0" stop-color="#ed0e59"/><stop offset="1" stop-color="#ee1e5a"/></linearGradient><linearGradient id="bf" x1="-396.83" y1="484.68" x2="-396.74" y2="484.59" gradientTransform="translate(26268.04 -19429.83) rotate(-90) scale(49 -54)" gradientUnits="userSpaceOnUse"><stop offset="0" stop-color="#bd0e72"/><stop offset="1" stop-color="#cd045c"/></linearGradient><linearGradient id="bg" x1="-396.84" y1="481.43" x2="-396.75" y2="481.34" gradientTransform="translate(18869.16 -19429.8) rotate(-90) scale(49 -39)" gradientUnits="userSpaceOnUse"><stop offset="0" stop-color="#b9177a"/><stop offset="1" stop-color="#c71f78"/></linearGradient><linearGradient id="bh" x1="-397.35" y1="486.48" x2="-397.26" y2="486.39" gradientTransform="translate(34636.92 -17072.88) rotate(-90) scale(43 -71)" gradientUnits="userSpaceOnUse"><stop offset="0" stop-color="#dd0043"/><stop offset="1" stop-color="#dd0355"/></linearGradient><linearGradient id="bi" x1="-397.56" y1="482.96" x2="-397.47" y2="482.87" gradientTransform="translate(22793.37 -23442.1) rotate(-90) scale(59 -47)" gradientUnits="userSpaceOnUse"><stop offset="0" stop-color="#cc3787"/><stop offset="1" stop-color="#c92a7d"/></linearGradient><linearGradient id="bj" x1="-397.68" y1="486.48" x2="-397.59" y2="486.39" gradientTransform="translate(34636.92 -23849.42) rotate(-90) scale(60 -71)" gradientUnits="userSpaceOnUse"><stop offset="0" stop-color="#e6024c"/><stop offset="1" stop-color="#de0253"/></linearGradient><linearGradient id="bk" x1="-397.7" y1="482.95" x2="-397.61" y2="482.86" gradientTransform="translate(22793.37 -25041.3) rotate(-90) scale(63 -47)" gradientUnits="userSpaceOnUse"><stop offset="0" stop-color="#d43384"/><stop offset="1" stop-color="#dc1b76"/></linearGradient><linearGradient id="bl" x1="97.01" y1="10.87" x2="123.31" y2="26.49" gradientUnits="userSpaceOnUse"><stop offset="0" stop-color="#c61f63"/><stop offset="1" stop-color="#9d1f63"/></linearGradient><linearGradient id="bm" x1="-397.66" y1="483.28" x2="-397.57" y2="483.19" gradientTransform="translate(21843.34 -25041.3) rotate(-90) scale(63 -45)" gradientUnits="userSpaceOnUse"><stop offset="0" stop-color="#e8005b"/><stop offset="1" stop-color="#dc116f"/></linearGradient><linearGradient id="bn" x1="-396.02" y1="487.28" x2="-395.93" y2="487.19" gradientTransform="translate(27396.09 -20573.81) rotate(-90) scale(52 -56)" gradientUnits="userSpaceOnUse"><stop offset="0" stop-color="#bc8777"/><stop offset="1" stop-color="#cd8e6f"/></linearGradient><linearGradient id="bo" x1="-396.73" y1="487.27" x2="-396.64" y2="487.18" gradientTransform="translate(27396.09 -24976.3) rotate(-90) scale(63 -56)" gradientUnits="userSpaceOnUse"><stop offset="0" stop-color="#b58e72"/><stop offset="1" stop-color="#c58963"/></linearGradient><linearGradient id="bp" x1="-395.08" y1="487.66" x2="-394.99" y2="487.57" gradientTransform="translate(36679.01 -18939.51) rotate(-90) scale(48 -75)" gradientUnits="userSpaceOnUse"><stop offset="0" stop-color="#513c63"/><stop offset="1" stop-color="#7b5874"/></linearGradient><linearGradient id="bq" x1="-394.55" y1="486.42" x2="-394.46" y2="486.33" gradientTransform="translate(25887.51 -13390.93) rotate(-90) scale(34 -53)" gradientUnits="userSpaceOnUse"><stop offset="0" stop-color="#8f8385"/><stop offset="1" stop-color="#b45c6b"/></linearGradient><linearGradient id="br" x1="-395.61" y1="485.15" x2="-395.53" y2="485.06" gradientTransform="translate(25812.51 -24899.3) rotate(-90) scale(63 -53)" gradientUnits="userSpaceOnUse"><stop offset="0" stop-color="#6e194f"/><stop offset="1" stop-color="#781254"/></linearGradient><linearGradient id="bs" x1="-395.59" y1="484.52" x2="-395.5" y2="484.43" gradientTransform="translate(21419.81 -24899.3) rotate(-90) scale(63 -44)" gradientUnits="userSpaceOnUse"><stop offset="0" stop-color="#7e144c"/><stop offset="1" stop-color="#a3104c"/></linearGradient><linearGradient id="bt" x1="-395.6" y1="480.66" x2="-395.51" y2="480.57" gradientTransform="translate(14998.98 -18968.48) rotate(-90) scale(48 -31)" gradientUnits="userSpaceOnUse"><stop offset="0" stop-color="#800f56"/><stop offset="1" stop-color="#9d0652"/></linearGradient><linearGradient id="bu" x1="-396.01" y1="484.5" x2="-395.92" y2="484.41" gradientTransform="translate(21419.81 -19384.83) rotate(-90) scale(49 -44)" gradientUnits="userSpaceOnUse"><stop offset="0" stop-color="#c1164c"/><stop offset="1" stop-color="#b20949"/></linearGradient><linearGradient id="bv" x1="-396.44" y1="479.16" x2="-396.35" y2="479.07" gradientTransform="translate(13036.84 -22578.41) rotate(-90) scale(57 -27)" gradientUnits="userSpaceOnUse"><stop offset="0" stop-color="#a30554"/><stop offset="1" stop-color="#ae0349"/></linearGradient><linearGradient id="bw" x1="-396.42" y1="484.86" x2="-396.33" y2="484.77" gradientTransform="translate(23372.9 -22578.44) rotate(-90) scale(57 -48)" gradientUnits="userSpaceOnUse"><stop offset="0" stop-color="#c80447"/><stop offset="1" stop-color="#bd0247"/></linearGradient><linearGradient id="bx" x1="-398.61" y1="485.94" x2="-398.52" y2="485.85" gradientTransform="translate(25858.51 -21119.14) rotate(-90) scale(53 -53)" gradientUnits="userSpaceOnUse"><stop offset="0" stop-color="#ee0c5a"/><stop offset="1" stop-color="#ef305c"/></linearGradient><linearGradient id="by" x1="-398.87" y1="488.42" x2="-398.78" y2="488.33" gradientTransform="translate(42108.77 -19140.51) rotate(-90) scale(48 -86)" gradientUnits="userSpaceOnUse"><stop offset="0" stop-color="#ef624b"/><stop offset="1" stop-color="#ef6d48"/></linearGradient><linearGradient id="bz" x1="-400.17" y1="488.39" x2="-400.08" y2="488.3" gradientTransform="translate(42108.77 -16404.21) rotate(-90) scale(41 -86)" gradientUnits="userSpaceOnUse"><stop offset="0" stop-color="#ee8d40"/><stop offset="1" stop-color="#ef5d47"/></linearGradient><linearGradient id="ca" x1="-398.51" y1="482.82" x2="-398.42" y2="482.73" gradientTransform="translate(18447.64 -23105.74) rotate(-90) scale(58 -38)" gradientUnits="userSpaceOnUse"><stop offset="0" stop-color="#ec0054"/><stop offset="1" stop-color="#ec0041"/></linearGradient><linearGradient id="cb" x1="-399.41" y1="489.22" x2="-399.32" y2="489.13" gradientTransform="translate(23603.88 -12774.26) rotate(-90) scale(32 -48)" gradientUnits="userSpaceOnUse"><stop offset="0" stop-color="#db8a78"/><stop offset="1" stop-color="#de8d6b"/></linearGradient><linearGradient id="cc" x1="-396.96" y1="487.06" x2="-396.87" y2="486.97" gradientTransform="translate(20570.74 -28564.26) rotate(-90) scale(72 -42)" gradientUnits="userSpaceOnUse"><stop offset="0" stop-color="#c0927c"/><stop offset="1" stop-color="#d0976e"/></linearGradient><linearGradient id="cd" x1="-396.95" y1="487.28" x2="-396.86" y2="487.19" gradientTransform="translate(18146.12 -28564.26) rotate(-90) scale(72 -37)" gradientUnits="userSpaceOnUse"><stop offset="0" stop-color="#c99175"/><stop offset="1" stop-color="#d99069"/></linearGradient><linearGradient id="ce" x1="-397.01" y1="488.09" x2="-396.92" y2="488" gradientTransform="translate(28909.66 -25393.62) rotate(-90) scale(64 -59)" gradientUnits="userSpaceOnUse"><stop offset="0" stop-color="#ca9873"/><stop offset="1" stop-color="#d59764"/></linearGradient><linearGradient id="cf" x1="-398.39" y1="481.69" x2="-398.3" y2="481.6" gradientTransform="translate(14553.45 -25092.26) rotate(-90) scale(63 -30)" gradientUnits="userSpaceOnUse"><stop offset="0" stop-color="#ee065b"/><stop offset="1" stop-color="#f01352"/></linearGradient><linearGradient id="cg" x1="-398.41" y1="482.24" x2="-398.32" y2="482.15" gradientTransform="translate(16497.55 -25092.26) rotate(-90) scale(63 -34)" gradientUnits="userSpaceOnUse"><stop offset="0" stop-color="#ed0044"/><stop offset="1" stop-color="#ee0030"/></linearGradient><linearGradient id="ch" x1="-396.72" y1="486.4" x2="-396.63" y2="486.31" gradientTransform="translate(23454.9 -24976.3) rotate(-90) scale(63 -48)" gradientUnits="userSpaceOnUse"><stop offset="0" stop-color="#d67e5d"/><stop offset="1" stop-color="#d7775e"/></linearGradient><linearGradient id="ci" x1="-397.27" y1="489.41" x2="-397.19" y2="489.32" gradientTransform="translate(28505.1 -17864.53) rotate(-90) scale(45 -58)" gradientUnits="userSpaceOnUse"><stop offset="0" stop-color="#d7887a"/><stop offset="1" stop-color="#dc8e81"/></linearGradient><linearGradient id="cj" x1="-397.29" y1="488.22" x2="-397.2" y2="488.13" gradientTransform="translate(22087.31 -17864.53) rotate(-90) scale(45 -45)" gradientUnits="userSpaceOnUse"><stop offset="0" stop-color="#d88e6d"/><stop offset="1" stop-color="#dd9366"/></linearGradient><linearGradient id="ck" x1="-397.94" y1="488.88" x2="-397.85" y2="488.79" xlink:href="#d"/><linearGradient id="cl" x1="-398.18" y1="488.2" x2="-398.09" y2="488.11" gradientTransform="translate(22087.31 -18305.85) rotate(-90) scale(46 -45)" gradientUnits="userSpaceOnUse"><stop offset="0" stop-color="#e09761"/><stop offset="1" stop-color="#df9268"/></linearGradient><linearGradient id="cm" x1="-398.18" y1="488.85" x2="-398.09" y2="488.76" xlink:href="#e"/><linearGradient id="cn" x1="-397.92" y1="490.32" x2="-397.83" y2="490.23" gradientTransform="translate(28563.1 -17498.2) rotate(-90) scale(44 -58)" gradientUnits="userSpaceOnUse"><stop offset="0" stop-color="#d88690"/><stop offset="1" stop-color="#cb7789"/></linearGradient><linearGradient id="co" x1="-397.91" y1="483.42" x2="-397.82" y2="483.33" gradientTransform="translate(4475.44 -17498.17) rotate(-90) scale(44 -9)" gradientUnits="userSpaceOnUse"><stop offset="0" stop-color="#dc8d8e"/><stop offset="1" stop-color="#da8984"/></linearGradient><linearGradient id="cp" x1="-399.78" y1="485" x2="-399.69" y2="484.91" gradientTransform="translate(14177.89 -13988.26) rotate(-90) scale(35 -29)" gradientUnits="userSpaceOnUse"><stop offset="0" stop-color="#ea9b4b"/><stop offset="1" stop-color="#ec9e47"/></linearGradient><linearGradient id="cq" x1="-399.91" y1="486.89" x2="-399.82" y2="486.8" gradientTransform="translate(20076.18 -16393.21) rotate(-90) scale(41 -41)" gradientUnits="userSpaceOnUse"><stop offset="0" stop-color="#ed9f49"/><stop offset="1" stop-color="#eb984b"/></linearGradient><linearGradient id="cr" x1="-399.9" y1="488.39" x2="-399.81" y2="488.3" gradientTransform="translate(25511.99 -16393.21) rotate(-90) scale(41 -52)" gradientUnits="userSpaceOnUse"><stop offset="0" stop-color="#e58f51"/><stop offset="1" stop-color="#e79049"/></linearGradient><linearGradient id="cs" x1="-400.08" y1="489.23" x2="-399.99" y2="489.14" gradientTransform="translate(23603.88 -11597.26) rotate(-90) scale(29 -48)" gradientUnits="userSpaceOnUse"><stop offset="0" stop-color="#de8c66"/><stop offset="1" stop-color="#e08f64"/></linearGradient><linearGradient id="ct" x1="-396.78" y1="487.76" x2="-396.69" y2="487.67" gradientTransform="translate(34736.92 -24186.64) rotate(-90) scale(61 -71)" gradientUnits="userSpaceOnUse"><stop offset="0" stop-color="#d55e62"/><stop offset="1" stop-color="#db6757"/></linearGradient><linearGradient id="cu" x1="-396.89" y1="486.08" x2="-396.8" y2="485.99" gradientTransform="translate(28779.63 -18241.85) rotate(-90) scale(46 -59)" gradientUnits="userSpaceOnUse"><stop offset="0" stop-color="#c50446"/><stop offset="1" stop-color="#d50d46"/></linearGradient><linearGradient id="cv" x1="-397.34" y1="486.09" x2="-397.25" y2="486" gradientTransform="translate(28779.63 -17072.88) rotate(-90) scale(43 -59)" gradientUnits="userSpaceOnUse"><stop offset="0" stop-color="#da0044"/><stop offset="1" stop-color="#e20e4c"/></linearGradient><linearGradient id="cw" x1="-397.91" y1="481.41" x2="-397.82" y2="481.32" gradientTransform="translate(14063.89 -14711.89) rotate(-90) scale(37 -29)" gradientUnits="userSpaceOnUse"><stop offset="0" stop-color="#e4024d"/><stop offset="1" stop-color="#e2104b"/></linearGradient><linearGradient id="cx" x1="-397.9" y1="481.41" x2="-397.81" y2="481.33" xlink:href="#cw"/><linearGradient id="cy" x1="-397.89" y1="486.86" x2="-397.8" y2="486.77" gradientTransform="translate(28342.1 -14711.91) rotate(-90) scale(37 -58)" gradientUnits="userSpaceOnUse"><stop offset="0" stop-color="#ea5d54"/><stop offset="1" stop-color="#e72852"/></linearGradient><linearGradient id="cz" x1="-398.13" y1="487" x2="-398.04" y2="486.91" gradientTransform="translate(20081.21 -19100.51) rotate(-90) scale(48 -41)" gradientUnits="userSpaceOnUse"><stop offset="0" stop-color="#e39e68"/><stop offset="1" stop-color="#e7a15d"/></linearGradient><linearGradient id="da" x1="-398.1" y1="488.01" x2="-398.01" y2="487.92" gradientTransform="translate(20612.74 -19100.51) rotate(-90) scale(48 -42)" gradientUnits="userSpaceOnUse"><stop offset="0" stop-color="#e19660"/><stop offset="1" stop-color="#e3955e"/></linearGradient><linearGradient id="db" x1="-398.45" y1="487.2" x2="-398.36" y2="487.11" gradientTransform="translate(21062.23 -16727.54) rotate(-90) scale(42 -43)" gradientUnits="userSpaceOnUse"><stop offset="0" stop-color="#e8a462"/><stop offset="1" stop-color="#e89e5c"/></linearGradient><linearGradient id="dc" x1="-400.1" y1="488.22" x2="-400.01" y2="488.13" gradientTransform="translate(22088.31 -11597.26) rotate(-90) scale(29 -45)" gradientUnits="userSpaceOnUse"><stop offset="0" stop-color="#e1915e"/><stop offset="1" stop-color="#e59656"/></linearGradient><linearGradient id="dd" x1="-400.49" y1="487.16" x2="-400.4" y2="487.07" gradientTransform="translate(21062.23 -10407.32) rotate(-90) scale(26 -43)" gradientUnits="userSpaceOnUse"><stop offset="0" stop-color="#e89c4d"/><stop offset="1" stop-color="#e89e4f"/></linearGradient><linearGradient id="de" x1="-399.1" y1="488.39" x2="-399.01" y2="488.3" gradientTransform="translate(25511.99 -18353.85) rotate(-90) scale(46 -52)" gradientUnits="userSpaceOnUse"><stop offset="0" stop-color="#e79d51"/><stop offset="1" stop-color="#e59856"/></linearGradient><linearGradient id="df" x1="-399.11" y1="488.24" x2="-399.02" y2="488.15" gradientTransform="translate(22088.31 -18353.85) rotate(-90) scale(46 -45)" gradientUnits="userSpaceOnUse"><stop offset="0" stop-color="#e48e51"/><stop offset="1" stop-color="#e59252"/></linearGradient></defs><g id="c"><path d="m124.78,6.59v-.06s-.04.03-.04.03c.01.01.03.02.04.04Z" fill="url(#d)"/><path d="m124.78,6.53l-.12-.04s.06.05.08.07l.04-.03Z" fill="url(#e)"/><path d="m108.75,31.92c.47.1.96.16,1.48.16.17,0,.34,0,.51-.01l-.34-1.86-1.65,1.71Z" fill="url(#f)"/><path d="m106.8,31.22l.17.1c.55.28,1.14.47,1.77.6l1.65-1.71-3.59,1.02Z" fill="url(#g)"/><path d="m110.73,32.07c1.17-.09,2.24-.55,3.21-1.39.36-.31.65-.64.89-.98l-4.44.51.34,1.86Z" fill="url(#h)"/><path d="m118.48,34.61c.17-.09.38-.22.6-.37l-.11-.16c-.16.18-.32.36-.49.53Z" fill="url(#i)"/><path d="m119.33,33.65c-.12.15-.23.29-.36.43l.11.16c.08-.05.16-.11.24-.17v-.42Z" fill="url(#j)"/><polygon points="100.41 27.53 104.19 29.71 103.6 23.68 100.41 27.53" fill="url(#k)"/><polygon points="103.6 23.68 104.19 29.71 105.64 30.55 108.87 26.99 103.6 23.68" fill="url(#l)"/><polygon points="105.64 30.55 106.8 31.22 110.39 30.21 108.87 26.99 105.64 30.55" fill="url(#m)"/><polygon points="108.87 26.99 110.3 22.43 103.6 23.68 108.87 26.99" fill="url(#n)"/><path d="m100,27.26l-1.14-6.17-1.01,4.05c.56.83,1.29,1.55,2.15,2.12Z" fill="url(#o)"/><path d="m98.86,21.09l1.14,6.17c.13.09.26.19.4.27h0s3.19-3.84,3.19-3.84l-4.74-2.59Z" fill="url(#p)"/><path d="m96.55,21.78c.16,1.22.62,2.36,1.3,3.36l1.01-4.05-2.31.69Z" fill="url(#q)"/><path d="m96.48,19.24v1.49c0,.35.02.7.07,1.04l2.31-.69-2.38-1.85Z" fill="url(#r)"/><polygon points="99.22 16.8 96.48 17.32 96.48 19.24 98.86 21.09 99.22 16.8" fill="url(#s)"/><polygon points="96.48 17.32 99.22 16.8 96.48 15.71 96.48 17.32" fill="url(#t)"/><polygon points="96.48 14.96 96.48 15.71 99.22 16.8 100.47 12.96 96.48 14.96" fill="url(#u)"/><path d="m110.3,22.43l1.11-.41c-.36-.09-.74-.16-1.13-.2l.02.61Z" fill="url(#v)"/><path d="m114.34,17.73l-.73-2.71-1.68,2.3c.83.04,1.65.18,2.41.41Z" fill="url(#w)"/><path d="m114.34,17.73c.51.15.99.35,1.47.58l.75-2.58-2.95-.71.73,2.71Z" fill="url(#x)"/><path d="m118.55,20.26l1.31-.15-3.31-4.38-.75,2.58c1.02.5,1.95,1.15,2.75,1.94Z" fill="url(#y)"/><path d="m120.45,22.92l-.59-2.81-1.31.15c.77.77,1.41,1.67,1.9,2.66Z" fill="url(#z)"/><polygon points="119.86 20.11 121.29 16.36 116.56 15.73 119.86 20.11" fill="url(#aa)"/><path d="m120.45,22.92c.14.28.26.56.37.85l2.52-2.94-3.48-.71.59,2.81Z" fill="url(#ab)"/><polygon points="123.35 20.83 121.29 16.36 119.86 20.11 123.35 20.83" fill="url(#ac)"/><path d="m121.45,26.35l3.06-1.69-3.6-.67c.27.75.46,1.54.55,2.36Z" fill="url(#ad)"/><path d="m120.91,24l3.6.67-1.16-3.84-2.52,2.94c.03.08.06.15.08.23Z" fill="url(#ae)"/><path d="m121.51,27.4c0,.3-.02.6-.05.9l1.54.56c.16-.47.31-.98.44-1.52.42-.27.8-.59,1.16-.93l-.1-1.74-3.06,1.69c.04.34.05.69.05,1.05Z" fill="url(#af)"/><path d="m119.33,33.65v.42c1.14-.83,2.7-2.41,3.68-5.21l-1.54-.56c-.18,2.01-.95,3.85-2.14,5.35Z" fill="url(#ag)"/><path d="m125.61,25.28l-1.1-.61.1,1.74c.37-.35.71-.72,1-1.13Z" fill="url(#ah)"/><path d="m126.38,23.91l-1.87.76,1.1.61c.31-.43.56-.89.77-1.37Z" fill="url(#ai)"/><path d="m124.51,24.67l1.87-.76c.17-.37.31-.75.42-1.15l-3.45-1.93,1.16,3.84Z" fill="url(#aj)"/><path d="m126.8,22.76c.18-.65.27-1.33.27-2.02v-1.32l-3.72,1.41,3.45,1.93Z" fill="url(#ak)"/><polygon points="123.35 20.83 127.07 19.42 127.07 17.67 121.29 16.36 123.35 20.83" fill="url(#al)"/><polygon points="127.07 17.67 127.07 14.39 121.29 16.36 127.07 17.67" fill="url(#am)"/><path d="m113.81,23.21s-.05-.03-.07-.05l-1.29,2.32,3.1.93c-.17-1.32-.75-2.39-1.74-3.19Z" fill="url(#an)"/><polygon points="108.87 26.99 112.45 25.47 110.3 22.43 108.87 26.99" fill="url(#ao)"/><path d="m111.41,22.02l-1.11.41,2.14,3.04,1.29-2.32c-.68-.53-1.46-.91-2.32-1.13Z" fill="url(#ap)"/><polygon points="110.39 30.21 112.45 25.47 108.87 26.99 110.39 30.21" fill="url(#aq)"/><path d="m112.45,25.47l-2.06,4.74,4.44-.51c.18-.26.33-.52.44-.8l-2.83-3.42Z" fill="url(#ar)"/><path d="m115.27,28.9c.22-.52.33-1.07.33-1.67,0-.29-.02-.56-.06-.83l-3.1-.93,2.83,3.42Z" fill="url(#as)"/><path d="m121.29,16.36l5.78-1.97v-2.26c0-.16-.02-.32-.03-.47l-1.99-1.2-3.75,5.9Z" fill="url(#at)"/><path d="m127.04,11.66c-.03-.42-.08-.83-.17-1.23l-1.82.03,1.99,1.2Z" fill="url(#au)"/><polygon points="116.56 15.73 121.29 16.36 119.86 13.23 116.56 15.73" fill="url(#av)"/><polygon points="121.29 16.36 125.04 10.46 119.86 13.23 121.29 16.36" fill="url(#aw)"/><polygon points="113.61 4.56 110.5 8.11 113.78 8.11 113.61 4.56" fill="url(#ax)"/><path d="m114.68.55c-1.07-.43-2.2-.6-3.33-.54l1.98,1.42,1.35-.89Z" fill="url(#ay)"/><polygon points="110.26 8.11 110.45 8.11 107.71 5.72 105.3 7.6 110.26 8.11" fill="url(#az)"/><polygon points="110.5 8.11 113.61 4.56 107.71 5.72 110.45 8.11 110.5 8.11" fill="url(#ba)"/><polygon points="113.34 1.43 107.71 5.72 113.61 4.56 113.34 1.43" fill="url(#bb)"/><polygon points="104.23 8.11 104.57 8.11 105.3 7.6 102.97 6.44 103.15 9.12 104.23 8.36 104.23 8.11" fill="url(#bc)"/><path d="m103.15,9.12l-.18-2.68-3.11-.74s-.09.05-.13.08l3.42,3.33Z" fill="url(#bd)"/><polygon points="105.3 7.6 107.71 5.72 102.97 6.44 105.3 7.6" fill="url(#be)"/><polygon points="100.47 12.96 96.81 11 96.48 12.23 96.48 14.96 100.47 12.96" fill="url(#bf)"/><path d="m96.55,11.06c-.05.35-.08.71-.08,1.07v.1l.33-1.24-.25.06Z" fill="url(#bg)"/><polygon points="96.81 11 100.47 12.96 103.15 9.12 96.81 11" fill="url(#bh)"/><path d="m96.61,10.79c-.02.09-.04.18-.05.27l.25-.06-.2-.21Z" fill="url(#bi)"/><path d="m99.73,5.79c-.13.1-.26.2-.39.3l-2.54,4.91,6.34-1.88-3.42-3.33Z" fill="url(#bj)"/><path d="m96.68,10.43c-.03.12-.05.24-.07.36l.2.21-.13-.57Z" fill="url(#bk)"/><path d="m96.68,10.43c-.03.12-.05.24-.07.36l.2.21-.13-.57Z" fill="url(#bl)"/><path d="m99.35,6.09c-1.35,1.11-2.28,2.64-2.66,4.34l.13.57,2.54-4.91Z" fill="url(#bm)"/><path d="m109.91,17.48c.57-.11.89-.18,1.49-.18.18,0,.35.02.52.03l1.68-2.3-3.69,1.32v1.14Z" fill="url(#bn)"/><polygon points="110.9 13.09 109.92 14.68 109.92 16.34 113.61 15.02 112.85 13.1 110.9 13.09" fill="url(#bo)"/><path d="m105.25,22.41l-1.02.34v-.45l-.63,1.38,6.7-1.25-1.03-.66c-1.41,0-2.75.22-4.01.64Z" fill="url(#bp)"/><path d="m109.35,21.77s-.05,0-.08,0l1.03.66-.02-.61c-.3-.03-.61-.05-.93-.05Z" fill="url(#bq)"/><polygon points="101.63 18.05 98.86 21.09 103.6 23.68 101.63 18.05" fill="url(#br)"/><polygon points="104.23 18.94 101.63 18.05 103.6 23.68 104.23 22.31 104.23 18.94" fill="url(#bs)"/><polygon points="99.22 16.8 98.86 21.09 101.63 18.05 99.22 16.8" fill="url(#bt)"/><polygon points="104.23 15.53 101.63 18.05 104.23 18.94 104.23 15.53" fill="url(#bu)"/><polygon points="100.47 12.96 99.22 16.8 101.63 18.05 100.47 12.96" fill="url(#bv)"/><polygon points="104.23 15.53 104.23 14.76 100.47 12.96 101.63 18.05 104.23 15.53" fill="url(#bw)"/><polygon points="107.71 5.72 105.89 2.17 105.15 2.6 102.97 6.44 107.71 5.72" fill="url(#bx)"/><polygon points="107.71 5.72 113.34 1.43 106.76 1.66 105.89 2.17 107.71 5.72" fill="url(#by)"/><path d="m111.35.01c-1.21.07-2.41.4-3.5,1.02l-1.09.63,6.57-.23L111.35.01Z" fill="url(#bz)"/><path d="m102.17,4.32l-1.77,1.02c-.19.11-.36.24-.54.36l3.11.74-.8-2.12Z" fill="url(#ca)"/><path d="m124.66,6.49c-.45-.44-.95-.83-1.51-1.15l-.94-.54-1.1.39,3.55,1.3Z" fill="url(#cb)"/><polygon points="114.86 13.1 113.61 15.02 116.56 15.73 116.88 13.11 114.86 13.1" fill="url(#cc)"/><polygon points="119.51 13.12 116.88 13.11 116.56 15.73 119.86 13.23 119.51 12.67 119.51 13.12" fill="url(#cd)"/><polygon points="113.61 15.02 114.86 13.1 112.85 13.1 113.61 15.02" fill="url(#ce)"/><polygon points="105.15 2.6 103.53 3.53 102.97 6.44 105.15 2.6" fill="url(#cf)"/><polygon points="103.53 3.53 102.17 4.32 102.97 6.44 103.53 3.53" fill="url(#cg)"/><polygon points="109.92 13.79 109.92 14.68 110.9 13.09 110.5 13.09 109.92 13.79" fill="url(#ch)"/><polygon points="119.86 13.23 125.04 10.46 121.38 9.21 119.86 13.23" fill="url(#ci)"/><polygon points="119.51 12.67 119.86 13.23 121.38 9.21 119.51 9.25 119.51 12.67" fill="url(#cj)"/><path d="m121.38,9.21l3.66,1.25-.26-3.87s-.03-.02-.04-.04l-3.36,2.65Z" fill="url(#ck)"/><polygon points="119.51 8.11 119.51 9.25 121.38 9.21 121.11 5.19 118.44 8.11 119.51 8.11" fill="url(#cl)"/><path d="m121.38,9.21l3.36-2.65s-.06-.05-.08-.07l-3.55-1.3.27,4.02Z" fill="url(#cm)"/><path d="m126.87,10.43c-.25-1.11-.72-2.15-1.4-3.05l-.42,3.08,1.82-.03Z" fill="url(#cn)"/><path d="m124.78,6.59l.26,3.87.42-3.08c-.21-.28-.44-.54-.68-.78Z" fill="url(#co)"/><polygon points="115.93 2.69 113.34 1.43 113.61 4.56 115.93 2.69" fill="url(#cp)"/><path d="m115.93,2.69l.38-1.3-.61-.35c-.33-.19-.67-.35-1.01-.49l-1.35.89,2.59,1.25Z" fill="url(#cq)"/><polygon points="117.51 2.08 116.31 1.39 115.93 2.69 117.51 2.08" fill="url(#cr)"/><polygon points="122.21 4.8 121.24 4.24 121.11 5.19 122.21 4.8" fill="url(#cs)"/><polygon points="109.92 13.09 109.92 13.79 110.5 13.09 109.92 13.09" fill="url(#ct)"/><polygon points="104.23 11.5 100.47 12.96 104.23 14.76 104.23 11.5" fill="url(#cu)"/><polygon points="104.23 9.86 103.15 9.12 100.47 12.96 104.23 11.5 104.23 9.86" fill="url(#cv)"/><polygon points="105.37 8.11 105.3 7.6 104.57 8.11 105.37 8.11" fill="url(#cw)"/><polygon points="103.15 9.12 104.23 9.86 104.23 8.36 103.15 9.12" fill="url(#cx)"/><polygon points="110.26 8.11 105.3 7.6 105.37 8.11 110.26 8.11" fill="url(#cy)"/><polygon points="117.38 8.11 117.45 5.01 114.01 8.11 117.38 8.11" fill="url(#cz)"/><polygon points="118.44 8.11 121.11 5.19 117.45 5.01 117.38 8.11 118.44 8.11" fill="url(#da)"/><polygon points="113.78 8.11 114.01 8.11 117.45 5.01 113.61 4.56 113.78 8.11" fill="url(#db)"/><polygon points="117.45 5.01 121.11 5.19 121.24 4.24 119.97 3.5 117.45 5.01" fill="url(#dc)"/><polygon points="117.45 5.01 115.93 2.69 113.61 4.56 117.45 5.01" fill="url(#dd)"/><polygon points="117.45 5.01 119.02 2.95 117.51 2.08 115.93 2.69 117.45 5.01" fill="url(#de)"/><polygon points="119.02 2.95 117.45 5.01 119.97 3.5 119.02 2.95" fill="url(#df)"/><text transform="translate(30.45 29.99)" font-family="GloriaHallelujah, &apos;Gloria Hallelujah&apos;" font-size="12"><tspan x="0" y="0">Starter by</tspan></text></g><g id="dg"><path d="m59.59.65h15.61v2.88h-6.19v15.16h-3.1V3.53h-6.32V.65Z"/><path d="m33.91.65v2.88h-12.52v4.64h10.07v2.88h-10.07v4.76h12.52v2.88h-15.61V3.53h0V.65h15.61Z"/><path d="m41.71.65h-4.05l14.52,18.04h4.06l-7.26-9.02L56.23.67h-4.05s-5.22,6.49-5.22,6.49l-5.24-6.51Z"/><path d="m45.87,13.54l-2.03-2.52-6.19,7.69h4.06l4.16-5.17Z"/><path d="m18.41,18.69L3.87.64H0v18.04h3.1V4.5l11.42,14.19h3.89Z" fill-rule="evenodd"/><path d="m75.9,18.58c-.23,0-.42-.08-.58-.24-.16-.16-.24-.35-.24-.57,0-.22.08-.41.24-.56s.35-.24.58-.24.41.08.57.24c.16.16.25.35.25.56,0,.15-.04.29-.12.41-.08.12-.18.22-.3.29-.12.07-.26.11-.4.11Z"/><path d="m81.19,10.98h1.37v5.29c0,.49-.11.9-.31,1.25-.21.35-.5.62-.86.8-.37.19-.8.28-1.29.28-.45,0-.85-.08-1.2-.24-.36-.16-.64-.39-.85-.7-.21-.31-.31-.7-.31-1.16h1.37c0,.2.05.38.14.53s.21.26.37.34c.16.08.34.12.54.12.22,0,.41-.05.56-.14.15-.09.27-.23.35-.41.08-.18.12-.4.12-.67v-5.29Z"/><path d="m88.21,13.05c-.03-.32-.18-.57-.44-.75-.26-.18-.59-.27-1-.27-.29,0-.53.04-.74.13-.21.09-.37.2-.47.35-.11.15-.16.31-.17.5,0,.16.04.29.11.41.07.12.17.21.3.29.13.08.27.15.42.2.16.05.31.1.47.14l.72.18c.29.07.57.16.83.27.27.11.51.25.72.43.21.17.38.38.5.62.12.24.19.53.19.85,0,.44-.11.83-.34,1.16-.23.33-.56.59-.99.78-.43.19-.95.28-1.56.28s-1.11-.09-1.54-.27c-.44-.18-.78-.44-1.02-.79-.25-.35-.38-.77-.4-1.27h1.36c.02.26.1.48.25.65.14.17.33.3.56.39.23.08.49.13.78.13s.56-.05.79-.13c.23-.09.4-.21.53-.37.13-.16.2-.35.2-.56,0-.2-.06-.36-.17-.49-.12-.13-.27-.24-.48-.32-.21-.09-.44-.17-.72-.23l-.87-.22c-.63-.16-1.12-.4-1.49-.73-.36-.32-.55-.75-.55-1.29,0-.44.12-.83.37-1.16.24-.33.58-.59,1-.78.42-.19.9-.28,1.44-.28s1.02.09,1.42.28c.41.18.73.44.96.77.23.33.35.7.36,1.12h-1.33Z"/></g></svg>