<?xml version="1.0" encoding="UTF-8"?>
<svg width="394px" height="128px" viewBox="0 0 394 128" version="1.1" xmlns="http://www.w3.org/2000/svg" xmlns:xlink="http://www.w3.org/1999/xlink">
    <title>Next.js Starter</title>
    <g id="Page-1" stroke="none" stroke-width="1" fill="none" fill-rule="evenodd">
        <g id="Next.js-Starter">
            <path d="M363.598412,2.22048522 C364.798249,3.27873838 365.869963,4.45625059 366.816167,5.69675005 C371.546628,11.8984424 373.679364,19.5330536 373.679364,26.9441126 C373.679364,31.8213449 374.213842,35.8176096 375.077781,38.1309062 C375.784076,40.0218637 376.705076,41.1113893 377.539947,41.5985944 C378.267278,42.0230423 378.996623,42.1005367 379.68902,41.9129617 C380.279045,41.7531199 380.876689,41.3787897 381.400786,40.7009045 C382.38838,39.4235178 383.205321,36.6765196 383.128154,32.4076532 C385.093387,34.5106334 387.806546,38.4867956 390.103679,45.637486 C392.262665,52.4556124 392.709702,57.858415 392.421709,61.7190485 C391.730105,72.9036274 386.150894,79.0678816 380.622959,82.4349538 C382.380773,78.742902 382.788653,74.8063004 382.212445,70.8744571 C381.456147,65.7137373 378.98447,60.5582963 375.690167,56.0361727 C370.27532,48.6030717 367.997365,40.3191417 367.663565,39.024668 L367.639127,38.9287879 C367.626159,38.8772263 367.619796,38.8506476 367.619796,38.8506476 C367.619796,38.8506476 367.239126,37.2605691 366.91199,34.6879975 C365.516893,37.1973535 364.832359,38.5027799 364.832358,38.5027809 C364.832357,38.5027835 360.602434,46.5693629 353.652351,62.1448224 C349.795173,70.7890984 351.414048,77.7470178 353.831556,82.4297752 C350.432681,80.1849157 347.113612,76.728139 344.61691,71.4427914 C343.652122,69.4044656 341.616545,63.9422287 342.928904,56.3177738 C343.738663,51.6132922 345.817211,46.1062801 350.142674,40.0649679 C362.632371,23.0085049 363.802634,8.52774162 363.598412,2.22048522 Z" id="Path" stroke="#000000" stroke-width="3" fill-rule="nonzero"></path>
            <polygon id="Path" fill="#000000" fill-rule="nonzero" points="261.919 48.0330722 330.547 48.0330722 330.547 60.7 303.323 60.7 303.323 127.339 289.71 127.339 289.71 60.7 261.919 60.7"></polygon>
            <polygon id="Path" fill="#000000" fill-rule="nonzero" points="149.052 48.0330722 149.052 60.7 94.0421 60.7 94.0421 81.0772 138.281 81.0772 138.281 93.7441 94.0421 93.7441 94.0421 114.6721 149.052 114.6721 149.052 127.339 80.43 127.339 80.43 60.7 80.4243 60.7 80.4243 48.0330722"></polygon>
            <polygon id="Path" fill="#000000" fill-rule="nonzero" points="183.32 48.0661486 165.506 48.0661486 229.312 127.3721 247.178 127.3721 215.271 87.7464 247.127 48.126654 229.312 48.154184 206.352 76.6697"></polygon>
            <polygon id="Path" fill="#000000" fill-rule="nonzero" points="201.6 104.7148 192.679 93.6229 165.455 127.4326 183.32 127.4326"></polygon>
            <polygon id="Path" fill="#000000" points="80.907 127.339 17.0151 48 0 48 0 127.3059 13.6121 127.3059 13.6121 64.9516 63.8067 127.339"></polygon>
            <path d="M333.607,126.8546 C332.61,126.8546 331.762,126.5093 331.052,125.8186 C330.342,125.1279 329.991,124.2917 330,123.3011 C329.991,122.3377 330.342,121.5106 331.052,120.8199 C331.762,120.1292 332.61,119.7838 333.607,119.7838 C334.566,119.7838 335.405,120.1292 336.115,120.8199 C336.835,121.5106 337.194,122.3377 337.204,123.3011 C337.194,123.9554 337.028,124.5552 336.696,125.0914 C336.355,125.6368 335.922,126.064 335.377,126.373 C334.842,126.6911 334.252,126.8546 333.607,126.8546 Z" id="Path" fill="#000000" fill-rule="nonzero"></path>
            <path d="M356.84,93.4453 L362.872,93.4453 L362.872,116.6846 C362.863,118.8204 362.401,120.6472 361.498,122.1832 C360.585,123.7191 359.321,124.8914 357.698,125.7185 C356.084,126.5364 354.193,126.9546 352.044,126.9546 C350.079,126.9546 348.318,126.6001 346.75,125.9094 C345.182,125.2187 343.937,124.1826 343.024,122.8193 C342.101,121.456 341.649,119.7565 341.649,117.7207 L347.691,117.7207 C347.7,118.6114 347.903,119.3838 348.29,120.0291 C348.677,120.6744 349.212,121.1651 349.895,121.5105 C350.586,121.8559 351.38,122.0286 352.274,122.0286 C353.243,122.0286 354.073,121.8286 354.746,121.4196 C355.419,121.0197 355.936,120.4199 356.296,119.6201 C356.646,118.8295 356.831,117.8479 356.84,116.6846 L356.84,93.4453 Z" id="Path" fill="#000000" fill-rule="nonzero"></path>
            <path d="M387.691,102.5338 C387.544,101.1251 386.898,100.0254 385.773,99.2438 C384.638,98.4531 383.172,98.0623 381.373,98.0623 C380.11,98.0623 379.022,98.2532 378.118,98.6258 C377.214,99.0075 376.513,99.5164 376.033,100.1617 C375.554,100.807 375.314,101.5432 375.295,102.3703 C375.295,103.061 375.461,103.6608 375.784,104.1607 C376.107,104.6696 376.54,105.0968 377.103,105.4422 C377.656,105.7966 378.274,106.0874 378.948,106.3237 C379.63,106.56 380.313,106.76 380.995,106.9236 L384.14,107.6961 C385.404,107.9869 386.631,108.3778 387.802,108.8776 C388.973,109.3684 390.034,109.9955 390.965,110.7498 C391.897,111.5042 392.635,112.413 393.179,113.4764 C393.723,114.5397 394,115.7848 394,117.2208 C394,119.1566 393.502,120.8562 392.496,122.3285 C391.491,123.7917 390.043,124.9369 388.143,125.764 C386.252,126.582 383.965,127 381.272,127 C378.671,127 376.402,126.6002 374.493,125.8004 C372.575,125.0097 371.08,123.8463 370.001,122.3194 C368.922,120.7926 368.341,118.9294 368.258,116.7391 L374.235,116.7391 C374.318,117.8842 374.687,118.8386 375.314,119.6111 C375.95,120.3745 376.78,120.938 377.795,121.3197 C378.819,121.6923 379.962,121.8832 381.226,121.8832 C382.545,121.8832 383.707,121.6832 384.712,121.2924 C385.708,120.9016 386.492,120.3564 387.055,119.6475 C387.627,118.9476 387.913,118.1206 387.922,117.1754 C387.913,116.312 387.654,115.5939 387.156,115.0304 C386.649,114.467 385.948,113.9944 385.053,113.6127 C384.15,113.231 383.098,112.8856 381.899,112.5857 L378.081,111.6223 C375.323,110.9225 373.137,109.8592 371.541,108.4323 C369.937,107.0054 369.143,105.115 369.143,102.7429 C369.143,100.798 369.678,99.0894 370.758,97.6261 C371.827,96.1629 373.294,95.0268 375.148,94.2179 C377.011,93.4 379.114,93 381.456,93 C383.836,93 385.92,93.4 387.719,94.2179 C389.517,95.0268 390.929,96.1538 391.952,97.5897 C392.976,99.0257 393.511,100.6707 393.539,102.5338 L387.691,102.5338 Z" id="Path" fill="#000000" fill-rule="nonzero"></path>
        </g>
    </g>
</svg>